<svg width="16" height="14" viewBox="0 0 16 14" fill="none" xmlns="http://www.w3.org/2000/svg">
<path d="M12.6473 1.90762H12.5716V0.953812C12.5716 0.427878 12.1176 0 11.5689 0C11.0203 0 10.5568 0.427878 10.5568 0.953812V1.90762H5.18378V0.953812C5.18378 0.427878 4.73919 0 4.18108 0C3.62297 0 3.17838 0.427878 3.17838 0.953812V1.90762H3.1027C1.39054 1.90762 0 3.218 0 4.83146V10.8574C0 12.4709 1.39054 13.7812 3.1027 13.7812H12.6473C14.3595 13.7812 15.75 12.4709 15.75 10.8574V4.83146C15.75 3.218 14.3595 1.90762 12.6473 1.90762ZM3.11216 3.24474H12.6473C13.5743 3.24474 14.3311 3.95788 14.3311 4.83146V5.41088H1.41892V4.83146C1.41892 3.95788 2.17568 3.24474 3.1027 3.24474H3.11216ZM12.6473 12.4441H3.11216C2.18514 12.4441 1.42838 11.731 1.42838 10.8574V6.748H14.3405V10.8574C14.3405 11.731 13.5838 12.4441 12.6568 12.4441H12.6473Z" fill="currentColor"/>
<path d="M4.47468 7.93359H3.85036C3.29658 7.93359 2.84766 8.35664 2.84766 8.87849V9.46682C2.84766 9.98868 3.29658 10.4117 3.85036 10.4117H4.47468C5.02846 10.4117 5.47739 9.98868 5.47739 9.46682V8.87849C5.47739 8.35664 5.02846 7.93359 4.47468 7.93359Z" fill="currentColor"/>
<path d="M8.28425 7.93359H7.65993C7.10615 7.93359 6.65723 8.35664 6.65723 8.87849V9.46682C6.65723 9.98868 7.10615 10.4117 7.65993 10.4117H8.28425C8.83803 10.4117 9.28696 9.98868 9.28696 9.46682V8.87849C9.28696 8.35664 8.83803 7.93359 8.28425 7.93359Z" fill="currentColor"/>
<path d="M12.1065 7.93359H11.4822C10.9284 7.93359 10.4795 8.35664 10.4795 8.87849V9.46682C10.4795 9.98868 10.9284 10.4117 11.4822 10.4117H12.1065C12.6603 10.4117 13.1092 9.98868 13.1092 9.46682V8.87849C13.1092 8.35664 12.6603 7.93359 12.1065 7.93359Z" fill="currentColor"/>
</svg>
