<svg width="20" height="20" viewBox="0 0 20 20" fill="none" xmlns="http://www.w3.org/2000/svg">
<g clip-path="url(#clip0_1_7971)">
<path d="M6.12648 2.77784H9.54203C9.76311 2.77734 9.98212 2.81901 10.1864 2.90044C10.3906 2.98188 10.5761 3.10146 10.7321 3.25228L15.6182 7.95561C15.775 8.10583 15.8992 8.28446 15.9838 8.48118C16.0684 8.6779 16.1117 8.88881 16.1111 9.10173V15.5856C16.1105 16.1567 15.8745 16.7042 15.455 17.108C15.0356 17.5118 14.4668 17.7389 13.8735 17.7395H6.12648C5.53322 17.7389 4.96444 17.5118 4.54494 17.108C4.12544 16.7042 3.8895 16.1567 3.88889 15.5856V4.93172C3.8895 4.36066 4.12544 3.81315 4.54494 3.40934C4.96444 3.00554 5.53322 2.77842 6.12648 2.77784ZM13.8735 16.6284C14.1607 16.6281 14.4361 16.5181 14.6392 16.3226C14.8423 16.1271 14.9565 15.8621 14.9568 15.5856V9.10173C14.957 9.03473 14.9433 8.96837 14.9167 8.90648C14.89 8.84459 14.8509 8.7884 14.8016 8.74117L9.91544 4.03784C9.81594 3.94283 9.68159 3.88935 9.54145 3.88895H6.12648C5.83926 3.88924 5.5639 3.9992 5.36081 4.1947C5.15771 4.39019 5.04348 4.65525 5.04318 4.93172V15.5856C5.04348 15.8621 5.15771 16.1271 5.36081 16.3226C5.5639 16.5181 5.83926 16.6281 6.12648 16.6284H13.8735Z" fill="currentColor"/>
<path d="M10.3477 12.8228L12.0805 11.1548C12.1638 11.0803 12.2739 11.0397 12.3876 11.0417C12.5013 11.0437 12.6098 11.088 12.6902 11.1654C12.7706 11.2429 12.8167 11.3473 12.8187 11.4567C12.8208 11.5662 12.7787 11.6721 12.7012 11.7523L10.2179 14.1427C10.1356 14.2219 10.024 14.2665 9.90764 14.2666C9.79125 14.2666 9.67959 14.2222 9.59719 14.1431L7.11225 11.7511C7.06903 11.7124 7.03436 11.6658 7.0103 11.6139C6.98624 11.562 6.97329 11.506 6.97222 11.4492C6.97115 11.3924 6.98198 11.336 7.00407 11.2833C7.02616 11.2306 7.05905 11.1828 7.10079 11.1426C7.14252 11.1024 7.19223 11.0708 7.24696 11.0495C7.30169 11.0282 7.36031 11.0178 7.41931 11.0188C7.47832 11.0199 7.53651 11.0323 7.5904 11.0555C7.64429 11.0787 7.69278 11.112 7.73297 11.1536L9.46823 12.824L9.46864 6.67254C9.46869 6.56038 9.51503 6.45284 9.59746 6.37357C9.67988 6.2943 9.79165 6.24979 9.90816 6.24984C10.0247 6.2499 10.1364 6.2945 10.2188 6.37384C10.3011 6.45319 10.3473 6.56077 10.3473 6.67293L10.3477 12.8228Z" fill="currentColor"/>
<path fill-rule="evenodd" clip-rule="evenodd" d="M9.69748 6.46993C9.6416 6.52367 9.61019 6.59657 9.61016 6.6726L9.60973 13.1528L7.62929 11.2465C7.60205 11.2183 7.56925 11.1956 7.53272 11.1799C7.49619 11.1642 7.45675 11.1557 7.41676 11.155C7.37676 11.1543 7.33703 11.1614 7.29993 11.1758C7.26284 11.1902 7.22914 11.2117 7.20086 11.2389C7.17257 11.2661 7.15028 11.2986 7.1353 11.3343C7.12033 11.37 7.11299 11.4082 7.11371 11.4467C7.11444 11.4852 7.12322 11.5232 7.13952 11.5584C7.15583 11.5935 7.17933 11.6252 7.20862 11.6514L7.21238 11.6548L9.69719 14.0467C9.75304 14.1003 9.82869 14.1304 9.90755 14.1303C9.98644 14.1303 10.0621 14.1001 10.1179 14.0464L12.5992 11.6579C12.6507 11.6038 12.6786 11.5326 12.6773 11.4592C12.6759 11.385 12.6446 11.3142 12.5901 11.2618C12.5356 11.2093 12.4621 11.1792 12.385 11.1779C12.3087 11.1765 12.2348 11.2035 12.1786 11.253L10.2062 13.1516L10.2058 6.67294C10.2058 6.59691 10.1745 6.5239 10.1187 6.47012C10.0628 6.41633 9.98709 6.3861 9.90811 6.38606C9.82912 6.38602 9.75336 6.41619 9.69748 6.46993ZM9.32713 6.67247C9.32721 6.52419 9.38847 6.382 9.49745 6.2772C9.60643 6.1724 9.75419 6.11356 9.90824 6.11363C10.0623 6.11369 10.21 6.17267 10.3189 6.27757C10.4277 6.38247 10.4889 6.52471 10.4888 6.67299L10.4892 12.494L11.9841 11.055C12.0942 10.9564 12.2398 10.9029 12.3901 10.9055C12.5405 10.9081 12.6839 10.9668 12.7902 11.0691C12.8966 11.1715 12.9575 11.3095 12.9602 11.4543C12.963 11.599 12.9073 11.7391 12.8049 11.8451L12.8014 11.8487L10.318 14.239C10.2092 14.3438 10.0616 14.4027 9.90774 14.4028C9.75385 14.4029 9.60622 14.3442 9.49727 14.2396L7.01388 11.8491C6.95767 11.7983 6.91252 11.7372 6.88109 11.6694C6.84928 11.6008 6.83215 11.5268 6.83074 11.4517C6.82932 11.3766 6.84365 11.302 6.87285 11.2323C6.90206 11.1627 6.94555 11.0994 7.00073 11.0463C7.05591 10.9932 7.12164 10.9513 7.194 10.9232C7.26636 10.8951 7.34387 10.8813 7.42189 10.8826C7.49991 10.884 7.57684 10.9005 7.6481 10.9311C7.71851 10.9614 7.78196 11.0048 7.83473 11.0589L9.32675 12.4951L9.32713 6.67247Z" fill="currentColor"/>
</g>
<defs>
<clipPath id="clip0_1_7971">
<rect width="20" height="20" fill="currentColor"/>
</clipPath>
</defs>
</svg>
