<svg width="18" height="24" viewBox="0 0 18 24" fill="none" xmlns="http://www.w3.org/2000/svg">
<path d="M17.4892 6.01211H11.4482V0L17.4892 6.01211Z" fill="#00832D"/>
<path d="M17.4894 6.01208V22.2977C17.4894 23.2378 16.7235 23.9999 15.7789 23.9999H1.71038C0.765737 23.9999 0 23.2378 0 22.2977V1.70222C0 0.762063 0.765737 0 1.71038 0H11.4484V6.01208H17.4894Z" fill="#00AC47"/>
<path d="M13.9233 9.27148H3.28467V17.1378H14.1507V9.27148H13.9233ZM12.8026 10.6132V12.5308H9.39982V10.6132H12.8026ZM8.05173 10.6132V12.5308H4.63276V10.6132H8.05173ZM4.63276 15.7961V13.8725H8.05173V15.7961H4.63276ZM9.39982 15.7961V13.8725H12.8026V15.7961H9.39982Z" fill="white"/>
</svg>
