<svg width="20" height="20" viewBox="0 0 20 20" fill="none" xmlns="http://www.w3.org/2000/svg">
<rect width="20" height="20" rx="3" fill="#D6D6D6"/>
<path d="M16.7081 11.8243C16.6468 11.8592 16.5792 11.8817 16.5092 11.8905C16.4391 11.8993 16.368 11.8942 16.3 11.8756C16.2319 11.8569 16.1682 11.825 16.1125 11.7817C16.0568 11.7384 16.0102 11.6845 15.9753 11.6232L14.7004 9.39793C13.9591 9.89854 13.1414 10.2757 12.2792 10.5146L12.6731 12.8753C12.6848 12.9448 12.6826 13.0159 12.6666 13.0846C12.6507 13.1532 12.6215 13.218 12.5804 13.2754C12.5394 13.3327 12.4875 13.3814 12.4277 13.4187C12.3678 13.456 12.3012 13.4811 12.2316 13.4926C12.203 13.4973 12.174 13.4998 12.145 13.5C12.018 13.4998 11.8952 13.4547 11.7984 13.3726C11.7016 13.2905 11.637 13.1767 11.6162 13.0516L11.229 10.7338C10.4125 10.8473 9.58419 10.8473 8.76766 10.7338L8.38047 13.0516C8.35964 13.177 8.2949 13.2909 8.19781 13.373C8.10072 13.4551 7.97758 13.5001 7.85035 13.5C7.82067 13.4999 7.79106 13.4974 7.76177 13.4926C7.69218 13.4811 7.62556 13.456 7.5657 13.4187C7.50584 13.3814 7.45392 13.3327 7.41291 13.2754C7.37191 13.218 7.34261 13.1532 7.32671 13.0846C7.31081 13.0159 7.3086 12.9448 7.32022 12.8753L7.71614 10.5146C6.85427 10.2749 6.03706 9.89711 5.29636 9.39592L4.0254 11.6232C3.95421 11.7471 3.83666 11.8377 3.69861 11.8751C3.56056 11.9124 3.41332 11.8934 3.28927 11.8223C3.16522 11.7512 3.07454 11.6338 3.03716 11.4959C2.99979 11.358 3.01878 11.2109 3.08997 11.087L4.43206 8.74106C3.96065 8.33426 3.52717 7.88557 3.13694 7.40052C3.08828 7.34624 3.0512 7.28263 3.02796 7.21357C3.00473 7.14451 2.99583 7.07144 3.00181 6.99882C3.00778 6.92621 3.02851 6.85558 3.06273 6.79123C3.09695 6.72689 3.14393 6.67018 3.20082 6.62458C3.25771 6.57897 3.3233 6.54543 3.3936 6.52599C3.4639 6.50655 3.53743 6.50162 3.60969 6.51151C3.68196 6.5214 3.75145 6.5459 3.81393 6.5835C3.8764 6.62111 3.93055 6.67104 3.97306 6.73024C5.08699 8.10698 7.0357 9.74647 9.99768 9.74647C12.9597 9.74647 14.9084 8.10497 16.0223 6.73024C16.0643 6.66983 16.1184 6.6187 16.181 6.58003C16.2437 6.54136 16.3136 6.51599 16.3865 6.50549C16.4594 6.49499 16.5337 6.49958 16.6048 6.51899C16.6758 6.5384 16.7421 6.5722 16.7995 6.61829C16.8569 6.66438 16.9042 6.72178 16.9385 6.78692C16.9727 6.85205 16.9932 6.92353 16.9986 6.9969C17.004 7.07027 16.9942 7.14397 16.9698 7.2134C16.9455 7.28284 16.9071 7.34653 16.8571 7.40052C16.4669 7.88557 16.0334 8.33426 15.562 8.74106L16.9041 11.087C16.9401 11.1482 16.9636 11.2159 16.9732 11.2862C16.9829 11.3565 16.9785 11.428 16.9603 11.4965C16.942 11.5651 16.9104 11.6294 16.8671 11.6857C16.8238 11.7419 16.7698 11.7891 16.7081 11.8243Z" fill="black"/>
</svg>
