<svg width="20" height="20" viewBox="0 0 20 20" fill="none" xmlns="http://www.w3.org/2000/svg">
<rect width="20" height="20" rx="3" fill="#D6D6D6"/>
<path opacity="0.2" d="M10 6.625C6.25 6.625 4.75 10 4.75 10C4.75 10 6.25 13.375 10 13.375C13.75 13.375 15.25 10 15.25 10C15.25 10 13.75 6.625 10 6.625ZM10 11.875C9.62916 11.875 9.26665 11.765 8.95831 11.559C8.64996 11.353 8.40964 11.0601 8.26773 10.7175C8.12581 10.3749 8.08868 9.99792 8.16103 9.63421C8.23337 9.27049 8.41195 8.9364 8.67417 8.67417C8.9364 8.41195 9.27049 8.23337 9.63421 8.16103C9.99792 8.08868 10.3749 8.12581 10.7175 8.26773C11.0601 8.40964 11.353 8.64996 11.559 8.95831C11.765 9.26665 11.875 9.62916 11.875 10C11.875 10.4973 11.6775 10.9742 11.3258 11.3258C10.9742 11.6775 10.4973 11.875 10 11.875Z" fill="#3E3E3E"/>
<path d="M15.5927 9.84812C15.5762 9.81109 15.1792 8.93031 14.2966 8.04766C13.1205 6.87156 11.635 6.25 10 6.25C8.365 6.25 6.87953 6.87156 5.70343 8.04766C4.82078 8.93031 4.42187 9.8125 4.40734 9.84812C4.38602 9.89608 4.375 9.94798 4.375 10.0005C4.375 10.053 4.38602 10.1049 4.40734 10.1528C4.42375 10.1898 4.82078 11.0702 5.70343 11.9528C6.87953 13.1284 8.365 13.75 10 13.75C11.635 13.75 13.1205 13.1284 14.2966 11.9528C15.1792 11.0702 15.5762 10.1898 15.5927 10.1528C15.614 10.1049 15.625 10.053 15.625 10.0005C15.625 9.94798 15.614 9.89608 15.5927 9.84812ZM10 13C8.55718 13 7.29671 12.4755 6.25328 11.4414C5.82514 11.0156 5.4609 10.5301 5.17187 10C5.46082 9.46982 5.82507 8.9843 6.25328 8.55859C7.29671 7.52453 8.55718 7 10 7C11.4428 7 12.7033 7.52453 13.7467 8.55859C14.1757 8.9842 14.5407 9.46971 14.8305 10C14.4925 10.6309 13.0202 13 10 13ZM10 7.75C9.55499 7.75 9.11997 7.88196 8.74996 8.12919C8.37995 8.37643 8.09156 8.72783 7.92127 9.13896C7.75097 9.5501 7.70641 10.0025 7.79323 10.439C7.88005 10.8754 8.09434 11.2763 8.40901 11.591C8.72367 11.9057 9.12459 12.12 9.56104 12.2068C9.9975 12.2936 10.4499 12.249 10.861 12.0787C11.2722 11.9084 11.6236 11.62 11.8708 11.25C12.118 10.88 12.25 10.445 12.25 10C12.2494 9.40345 12.0121 8.83152 11.5903 8.4097C11.1685 7.98787 10.5965 7.75062 10 7.75ZM10 11.5C9.70332 11.5 9.41331 11.412 9.16664 11.2472C8.91997 11.0824 8.72771 10.8481 8.61418 10.574C8.50064 10.2999 8.47094 9.99834 8.52882 9.70736C8.5867 9.41639 8.72956 9.14912 8.93933 8.93934C9.14911 8.72956 9.41639 8.5867 9.70736 8.52882C9.99833 8.47094 10.2999 8.50065 10.574 8.61418C10.8481 8.72771 11.0824 8.91997 11.2472 9.16664C11.412 9.41332 11.5 9.70333 11.5 10C11.5 10.3978 11.342 10.7794 11.0607 11.0607C10.7794 11.342 10.3978 11.5 10 11.5Z" fill="#3E3E3E"/>
</svg>
