<svg width="20" height="20" viewBox="0 0 20 20" fill="none" xmlns="http://www.w3.org/2000/svg">
<rect width="20" height="20" fill="#1E1E1E"/>
<g clip-path="url(#clip0_0_1)">
<rect width="390" height="812" transform="translate(-35 -135)" fill="#1E77ED"/>
<path d="M-35 -26H355V677H-35V-26Z" fill="white"/>
<rect x="-15" y="-10" width="350" height="76" rx="5" fill="#DCEBFF"/>
<g clip-path="url(#clip1_0_1)">
<path d="M8.54163 8.33331C8.54163 8.08609 8.61494 7.84441 8.75229 7.63885C8.88964 7.43329 9.08487 7.27307 9.31328 7.17846C9.54168 7.08385 9.79302 7.0591 10.0355 7.10733C10.278 7.15556 10.5007 7.27461 10.6755 7.44943C10.8503 7.62425 10.9694 7.84697 11.0176 8.08945C11.0658 8.33193 11.0411 8.58326 10.9465 8.81167C10.8519 9.04007 10.6917 9.2353 10.4861 9.37265C10.2805 9.51 10.0389 9.58331 9.79163 9.58331C9.46011 9.58331 9.14217 9.45162 8.90775 9.2172C8.67333 8.98278 8.54163 8.66483 8.54163 8.33331ZM18.5416 11.7708C18.5416 13.4396 18.0468 15.0709 17.1197 16.4584C16.1925 17.846 14.8748 18.9274 13.333 19.566C11.7913 20.2047 10.0948 20.3718 8.45805 20.0462C6.82134 19.7206 5.31792 18.917 4.13792 17.737C2.95791 16.557 2.15432 15.0536 1.82875 13.4169C1.50319 11.7802 1.67028 10.0837 2.3089 8.54192C2.94751 7.00017 4.02897 5.68241 5.41651 4.75529C6.80405 3.82816 8.43535 3.33331 10.1041 3.33331C12.3411 3.33579 14.4858 4.22554 16.0676 5.80734C17.6494 7.38914 18.5391 9.53381 18.5416 11.7708ZM16.6666 11.7708C16.6666 10.4729 16.2817 9.20408 15.5606 8.12488C14.8396 7.04569 13.8146 6.20455 12.6155 5.70785C11.4163 5.21115 10.0968 5.08119 8.82385 5.33441C7.55085 5.58763 6.38152 6.21264 5.46374 7.13042C4.54596 8.04821 3.92094 9.21753 3.66773 10.4905C3.41451 11.7635 3.54447 13.083 4.04117 14.2822C4.53787 15.4813 5.379 16.5062 6.4582 17.2273C7.5374 17.9484 8.80619 18.3333 10.1041 18.3333C11.844 18.3315 13.5122 17.6394 14.7425 16.4091C15.9728 15.1788 16.6648 13.5107 16.6666 11.7708ZM11.0416 14.6364V12.0833C11.0416 11.6689 10.877 11.2715 10.584 10.9785C10.291 10.6854 9.89353 10.5208 9.47913 10.5208C9.25773 10.5205 9.04336 10.5985 8.87398 10.7411C8.70461 10.8837 8.59116 11.0816 8.55373 11.2998C8.5163 11.518 8.5573 11.7425 8.66948 11.9333C8.78166 12.1242 8.95778 12.2692 9.16663 12.3427V14.8958C9.16663 15.3102 9.33125 15.7076 9.62428 16.0007C9.9173 16.2937 10.3147 16.4583 10.7291 16.4583C10.9505 16.4586 11.1649 16.3806 11.3343 16.238C11.5037 16.0954 11.6171 15.8975 11.6545 15.6793C11.692 15.4611 11.651 15.2367 11.5388 15.0458C11.4266 14.8549 11.2505 14.7099 11.0416 14.6364Z" fill="#1E77ED"/>
</g>
</g>
<defs>
<clipPath id="clip0_0_1">
<rect width="390" height="812" fill="white" transform="translate(-35 -135)"/>
</clipPath>
<clipPath id="clip1_0_1">
<rect width="20" height="20" fill="white"/>
</clipPath>
</defs>
</svg>
