<svg width="36" height="34" viewBox="0 0 36 34" fill="none" xmlns="http://www.w3.org/2000/svg">
<g clip-path="url(#clip0_1_9126)">
<path d="M15.8753 16.9934L21.7083 10.455C21.7999 10.3519 21.8696 10.2326 21.9132 10.1037C21.9568 9.97475 21.9736 9.83884 21.9626 9.70369C21.9517 9.56854 21.9131 9.43679 21.8492 9.31597C21.7852 9.19515 21.6972 9.08762 21.59 8.99952C21.4828 8.91143 21.3587 8.84449 21.2246 8.80253C21.0906 8.76057 20.9492 8.74441 20.8086 8.75497C20.6681 8.76553 20.5311 8.80262 20.4054 8.8641C20.2798 8.92558 20.1679 9.01025 20.0763 9.11329L13.6449 16.3278C13.4783 16.5146 13.3867 16.7526 13.3867 16.9987C13.3867 17.2448 13.4783 17.4827 13.6449 17.6695L20.0763 24.8841C20.1679 24.9871 20.2798 25.0718 20.4054 25.1333C20.5311 25.1947 20.6681 25.2318 20.8086 25.2424C20.9492 25.2529 21.0906 25.2368 21.2246 25.1948C21.3587 25.1529 21.4828 25.0859 21.59 24.9978C21.6972 24.9097 21.7852 24.8022 21.8492 24.6814C21.9131 24.5606 21.9517 24.4288 21.9626 24.2937C21.9736 24.1585 21.9568 24.0226 21.9132 23.8937C21.8696 23.7648 21.7999 23.6454 21.7083 23.5424L15.8753 16.9934Z" fill="currentColor"/>
</g>
<defs>
<clipPath id="clip0_1_9126">
<rect width="35.36" height="34" fill="white" transform="matrix(-1 0 0 1 35.36 0)"/>
</clipPath>
</defs>
</svg>
