<svg width="24" height="24" viewBox="0 0 24 24" fill="none" xmlns="http://www.w3.org/2000/svg">
<path d="M20.5484 11.742V19.0807C20.5484 19.4699 20.3938 19.8433 20.1185 20.1185C19.8432 20.3938 19.4699 20.5484 19.0806 20.5484H4.40323C4.01396 20.5484 3.64063 20.3938 3.36538 20.1185C3.09012 19.8433 2.93549 19.4699 2.93549 19.0807V4.40324C2.93549 4.01397 3.09012 3.64064 3.36538 3.36539C3.64063 3.09013 4.01396 2.9355 4.40323 2.9355H11.7419C11.9366 2.9355 12.1232 3.01282 12.2609 3.15044C12.3985 3.28807 12.4758 3.47473 12.4758 3.66937C12.4758 3.864 12.3985 4.05067 12.2609 4.18829C12.1232 4.32592 11.9366 4.40324 11.7419 4.40324H4.40323V19.0807H19.0806V11.742C19.0806 11.5473 19.158 11.3607 19.2956 11.223C19.4332 11.0854 19.6199 11.0081 19.8145 11.0081C20.0092 11.0081 20.1958 11.0854 20.3334 11.223C20.4711 11.3607 20.5484 11.5473 20.5484 11.742ZM21.0676 6.3902L12.2612 15.1966C12.1929 15.2648 12.112 15.3188 12.0229 15.3556C11.9338 15.3925 11.8383 15.4114 11.7419 15.4113H8.80645C8.61182 15.4113 8.42516 15.334 8.28753 15.1964C8.1499 15.0587 8.07258 14.8721 8.07258 14.6774V11.742C8.07251 11.6455 8.09143 11.5501 8.12826 11.461C8.16509 11.3719 8.21911 11.2909 8.28724 11.2227L17.0937 2.41628C17.1618 2.34805 17.2428 2.29392 17.3319 2.25699C17.421 2.22006 17.5165 2.20105 17.6129 2.20105C17.7093 2.20105 17.8048 2.22006 17.8939 2.25699C17.983 2.29392 18.064 2.34805 18.1321 2.41628L21.0676 5.35177C21.1358 5.41992 21.19 5.50086 21.2269 5.58995C21.2638 5.67904 21.2828 5.77454 21.2828 5.87098C21.2828 5.96742 21.2638 6.06292 21.2269 6.15201C21.19 6.2411 21.1358 6.32204 21.0676 6.3902ZM19.5081 5.87098L17.6129 3.97301L16.4488 5.13711L18.3468 7.03509L19.5081 5.87098Z" fill="currentColor"/>
</svg>
