<svg width="16" height="16" viewBox="0 0 16 16" fill="none" xmlns="http://www.w3.org/2000/svg">
<rect width="15.2308" height="15.2308" rx="7.61538" fill="#FCC100"/>
<path d="M12.2308 7.61538C12.2308 7.8194 12.1497 8.01505 12.0055 8.15931C11.8612 8.30357 11.6655 8.38461 11.4615 8.38461H8.38461V11.4615C8.38461 11.6656 8.30357 11.8612 8.15931 12.0055C8.01505 12.1497 7.8194 12.2308 7.61538 12.2308C7.41137 12.2308 7.21571 12.1497 7.07146 12.0055C6.9272 11.8612 6.84615 11.6656 6.84615 11.4615V8.38461H3.76923C3.56522 8.38461 3.36956 8.30357 3.2253 8.15931C3.08104 8.01505 3 7.8194 3 7.61538C3 7.41137 3.08104 7.21571 3.2253 7.07146C3.36956 6.9272 3.56522 6.84615 3.76923 6.84615H6.84615V3.76923C6.84615 3.56522 6.9272 3.36956 7.07146 3.2253C7.21571 3.08104 7.41137 3 7.61538 3C7.8194 3 8.01505 3.08104 8.15931 3.2253C8.30357 3.36956 8.38461 3.56522 8.38461 3.76923V6.84615H11.4615C11.6655 6.84615 11.8612 6.9272 12.0055 7.07146C12.1497 7.21571 12.2308 7.41137 12.2308 7.61538Z" fill="white"/>
</svg>
