<svg width="25" height="24" viewBox="0 0 25 24" fill="none" xmlns="http://www.w3.org/2000/svg">
<g clip-path="url(#clip0_1_9154)">
<path d="M13.7533 11.9953L9.63584 7.37996C9.57117 7.30723 9.52203 7.22296 9.49122 7.13197C9.46042 7.04097 9.44856 6.94504 9.45631 6.84964C9.46407 6.75423 9.49129 6.66123 9.53642 6.57595C9.58156 6.49066 9.64372 6.41476 9.71936 6.35258C9.795 6.29039 9.88264 6.24314 9.97727 6.21352C10.0719 6.1839 10.1717 6.17249 10.2709 6.17995C10.3701 6.18741 10.4668 6.21358 10.5555 6.25698C10.6442 6.30038 10.7232 6.36015 10.7878 6.43288L15.3238 11.5264C15.4415 11.6583 15.5061 11.8263 15.5061 12C15.5061 12.1737 15.4415 12.3416 15.3238 12.4735L10.784 17.5661C10.6534 17.713 10.4674 17.804 10.2671 17.819C10.0667 17.8341 9.86829 17.772 9.71552 17.6464C9.56276 17.5208 9.46813 17.342 9.45247 17.1494C9.43681 16.9567 9.50139 16.7659 9.632 16.619L13.7533 11.9953Z" fill="currentColor"/>
</g>
<defs>
<clipPath id="clip0_1_9154">
<rect width="24.96" height="24" fill="white" transform="matrix(-1 0 0 1 24.9602 0)"/>
</clipPath>
</defs>
</svg>
