<svg width="55" height="55" viewBox="0 0 55 55" fill="none" xmlns="http://www.w3.org/2000/svg">
<path d="M51.6183 39.9823L32.8302 7.35402C32.286 6.42335 31.5076 5.65137 30.5725 5.1149C29.6373 4.57842 28.578 4.29614 27.4999 4.29614C26.4218 4.29614 25.3625 4.57842 24.4273 5.1149C23.4922 5.65137 22.7138 6.42335 22.1696 7.35402L3.38153 39.9823C2.85349 40.8855 2.5752 41.9128 2.5752 42.959C2.5752 44.0052 2.85349 45.0325 3.38153 45.9357C3.91969 46.871 4.697 47.6463 5.6337 48.182C6.5704 48.7178 7.63277 48.9947 8.71181 48.9843H46.288C47.3663 48.9939 48.4278 48.7166 49.3637 48.1809C50.2995 47.6452 51.0762 46.8703 51.614 45.9357C52.1427 45.0329 52.4217 44.0058 52.4224 42.9596C52.4232 41.9134 52.1456 40.8859 51.6183 39.9823ZM47.1495 43.3554C47.0621 43.5043 46.9361 43.6268 46.7849 43.71C46.6336 43.7932 46.4627 43.834 46.2901 43.828H8.71181C8.53927 43.834 8.36833 43.7932 8.21706 43.71C8.06579 43.6268 7.93981 43.5043 7.85243 43.3554C7.77832 43.2349 7.73908 43.0962 7.73908 42.9547C7.73908 42.8132 7.77832 42.6745 7.85243 42.554L26.6405 9.9257C26.7336 9.7825 26.8609 9.66482 27.011 9.58335C27.1611 9.50187 27.3291 9.4592 27.4999 9.4592C27.6707 9.4592 27.8387 9.50187 27.9888 9.58335C28.1389 9.66482 28.2662 9.7825 28.3593 9.9257L47.1452 42.554C47.22 42.6741 47.26 42.8126 47.2607 42.9541C47.2615 43.0956 47.223 43.2345 47.1495 43.3554ZM24.9218 29.2187V22.3437C24.9218 21.6599 25.1934 21.0042 25.6769 20.5207C26.1604 20.0372 26.8161 19.7655 27.4999 19.7655C28.1837 19.7655 28.8394 20.0372 29.3229 20.5207C29.8064 21.0042 30.078 21.6599 30.078 22.3437V29.2187C30.078 29.9024 29.8064 30.5582 29.3229 31.0417C28.8394 31.5252 28.1837 31.7968 27.4999 31.7968C26.8161 31.7968 26.1604 31.5252 25.6769 31.0417C25.1934 30.5582 24.9218 29.9024 24.9218 29.2187ZM30.9374 37.8124C30.9374 38.4923 30.7358 39.1569 30.3581 39.7222C29.9804 40.2875 29.4435 40.7281 28.8154 40.9883C28.1872 41.2484 27.4961 41.3165 26.8293 41.1839C26.1625 41.0512 25.55 40.7238 25.0692 40.2431C24.5885 39.7624 24.2611 39.1499 24.1284 38.483C23.9958 37.8162 24.0639 37.1251 24.3241 36.4969C24.5842 35.8688 25.0248 35.332 25.5901 34.9542C26.1554 34.5765 26.82 34.3749 27.4999 34.3749C28.4116 34.3749 29.2859 34.7371 29.9306 35.3817C30.5752 36.0264 30.9374 36.9007 30.9374 37.8124Z" fill="#F74747"/>
</svg>
